STARTFONT 2.1
COMMENT HP/COL 16500B Large Font
FONT -Misc-Fixed-Medium-R-Normal--15-150-75-75-M-100-ISO8859-1
SIZE 15 75 75
FONTBOUNDINGBOX 12 15 0 -3
STARTPROPERTIES 19
FONTNAME_REGISTRY ""
FOUNDRY "Misc"
FAMILY_NAME "Fixed"
WEIGHT_NAME "Medium"
SLANT "R"
SETWIDTH_NAME "Normal"
ADD_STYLE_NAME ""
PIXEL_SIZE 15
POINT_SIZE 150
RESOLUTION_X 75
RESOLUTION_Y 75
SPACING "M"
AVERAGE_WIDTH 100
CHARSET_REGISTRY "ISO8859"
CHARSET_ENCODING "1"
DEFAULT_CHAR 32
FONT_DESCENT 3
FONT_ASCENT 12
COPYRIGHT "Hewlett-Packard / Colorado Springs Division 1993."
ENDPROPERTIES
CHARS 128
STARTCHAR HP
ENCODING 0
SWIDTH 900 0
DWIDTH 12 0
BBX 12 15 0 -3
BITMAP
0000
6000
6000
6000
6F00
7F80
6180
6180
1BC0
1FE0
1860
1FE0
1BC0
1800
1800
ENDCHAR
STARTCHAR DOWN_AR
ENCODING 1
SWIDTH 900 0
DWIDTH 12 0
BBX 12 15 0 -3
BITMAP
0000
0600
0600
0600
0600
0600
0600
0600
0600
0600
6660
36C0
1F80
0F00
0600
ENDCHAR
STARTCHAR UP_ARRO
ENCODING 2
SWIDTH 900 0
DWIDTH 12 0
BBX 12 15 0 -3
BITMAP
0000
0600
0F00
1F80
36C0
6660
0600
0600
0600
0600
0600
0600
0600
0600
0600
ENDCHAR
STARTCHAR UP_DOWN
ENCODING 3
SWIDTH 900 0
DWIDTH 12 0
BBX 12 15 0 -3
BITMAP
0000
0600
0F00
1F80
36C0
6660
0600
0600
0600
0600
6660
36C0
1F80
0F00
0600
ENDCHAR
STARTCHAR LOW_LVL
ENCODING 4
SWIDTH 900 0
DWIDTH 12 0
BBX 12 15 0 -3
BITMAP
0000
0000
0000
0000
0000
0000
0000
0000
0000
0000
0000
0000
0000
3FC0
3FC0
ENDCHAR
STARTCHAR HIGH_LV
ENCODING 5
SWIDTH 900 0
DWIDTH 12 0
BBX 12 15 0 -3
BITMAP
0000
3FC0
3FC0
0000
0000
0000
0000
0000
0000
0000
0000
0000
0000
0000
0000
ENDCHAR
STARTCHAR ACTIVE
ENCODING 6
SWIDTH 900 0
DWIDTH 12 0
BBX 12 15 0 -3
BITMAP
0000
0600
0F00
1F80
36C0
6660
0600
0600
0600
0600
6660
36C0
1F80
0F00
0600
ENDCHAR
STARTCHAR RIGHT_A
ENCODING 7
SWIDTH 900 0
DWIDTH 12 0
BBX 12 15 0 -3
BITMAP
0000
0000
0000
0200
0300
0180
00C0
7FE0
7FE0
00C0
0180
0300
0200
0000
0000
ENDCHAR
STARTCHAR LEFT_AR
ENCODING 8
SWIDTH 900 0
DWIDTH 12 0
BBX 12 15 0 -3
BITMAP
0000
0000
0000
0400
0C00
1800
3000
7FE0
7FE0
3000
1800
0C00
0400
0000
0000
ENDCHAR
STARTCHAR NOT_EQ
ENCODING 9
SWIDTH 900 0
DWIDTH 12 0
BBX 12 15 0 -3
BITMAP
0000
0000
0000
00E0
01C0
7FE0
7FE0
0700
0E00
7FE0
7FE0
3800
7000
0000
0000
ENDCHAR
STARTCHAR AND_DOT
ENCODING 10
SWIDTH 900 0
DWIDTH 12 0
BBX 12 15 0 -3
BITMAP
0000
0000
0000
0000
0000
0000
0600
0F00
0F00
0600
0000
0000
0000
0000
0000
ENDCHAR
STARTCHAR ALL_DOT
ENCODING 11
SWIDTH 900 0
DWIDTH 12 0
BBX 12 15 0 -3
BITMAP
0000
FFF0
FFF0
FFF0
FFF0
FFF0
FFF0
FFF0
FFF0
FFF0
FFF0
FFF0
FFF0
FFF0
FFF0
ENDCHAR
STARTCHAR X_O_MKR
ENCODING 12
SWIDTH 900 0
DWIDTH 12 0
BBX 12 15 0 -3
BITMAP
0000
0000
0000
0000
0000
0000
0000
0000
0000
0000
0000
0000
0000
0000
0000
ENDCHAR
STARTCHAR O_X_MKR
ENCODING 13
SWIDTH 900 0
DWIDTH 12 0
BBX 12 15 0 -3
BITMAP
0000
0000
0000
0000
0000
0000
0000
0000
0000
0000
0000
0000
0000
0000
0000
ENDCHAR
STARTCHAR X_ON_O
ENCODING 14
SWIDTH 900 0
DWIDTH 12 0
BBX 12 15 0 -3
BITMAP
0000
0000
0000
0000
0000
0000
0000
0000
0000
0000
0000
0000
0000
0000
0000
ENDCHAR
STARTCHAR X_MARKR
ENCODING 15
SWIDTH 900 0
DWIDTH 12 0
BBX 12 15 0 -3
BITMAP
0000
0000
0000
0000
0000
0000
0000
0000
0000
0000
0000
0000
0000
0000
0000
ENDCHAR
STARTCHAR O_MARKR
ENCODING 16
SWIDTH 900 0
DWIDTH 12 0
BBX 12 15 0 -3
BITMAP
0000
0000
0000
0000
0000
0000
0000
0000
0000
0000
0000
0000
0000
0000
0000
ENDCHAR
STARTCHAR DELTA
ENCODING 17
SWIDTH 900 0
DWIDTH 12 0
BBX 12 15 0 -3
BITMAP
0000
0000
0000
0000
0000
0000
0600
0F00
1980
1980
30C0
30C0
6060
7FE0
7FE0
ENDCHAR
STARTCHAR OHMS
ENCODING 18
SWIDTH 900 0
DWIDTH 12 0
BBX 12 15 0 -3
BITMAP
0000
0000
0000
0000
0000
0F00
1F80
30C0
6060
6060
6060
30C0
1980
79E0
79E0
ENDCHAR
STARTCHAR POS_PLS
ENCODING 19
SWIDTH 900 0
DWIDTH 12 0
BBX 12 15 0 -3
BITMAP
0000
0000
0000
0000
1F80
1F80
1980
1980
1980
79E0
79E0
0000
0000
0000
0000
ENDCHAR
STARTCHAR NEG_PLS
ENCODING 20
SWIDTH 900 0
DWIDTH 12 0
BBX 12 15 0 -3
BITMAP
0000
0000
0000
0000
79E0
79E0
1980
1980
1980
1F80
1F80
0000
0000
0000
0000
ENDCHAR
STARTCHAR RISING
ENCODING 21
SWIDTH 900 0
DWIDTH 12 0
BBX 12 15 0 -3
BITMAP
0000
07E0
07E0
0600
0600
0600
0600
0F00
1F80
3FC0
0600
0600
0600
7E00
7E00
ENDCHAR
STARTCHAR FALLING
ENCODING 22
SWIDTH 900 0
DWIDTH 12 0
BBX 12 15 0 -3
BITMAP
0000
7E00
7E00
0600
0600
0600
3FC0
1F80
0F00
0600
0600
0600
0600
07E0
07E0
ENDCHAR
STARTCHAR GROUND
ENCODING 23
SWIDTH 900 0
DWIDTH 12 0
BBX 12 15 0 -3
BITMAP
0000
0600
0600
0600
0600
0600
0600
7FE0
7FE0
0000
1F80
1F80
0000
0600
0600
ENDCHAR
STARTCHAR MICRO
ENCODING 24
SWIDTH 900 0
DWIDTH 12 0
BBX 12 15 0 -3
BITMAP
0000
0000
0000
0000
0000
3060
3060
3060
3060
3060
3FE0
3FC0
3000
6000
C000
ENDCHAR
STARTCHAR LT_EQ
ENCODING 25
SWIDTH 900 0
DWIDTH 12 0
BBX 12 15 0 -3
BITMAP
0000
0000
00E0
0380
0E00
3800
7000
3800
0E00
0380
00E0
0000
7FE0
7FE0
0000
ENDCHAR
STARTCHAR PLUS_MINUS
ENCODING 26
SWIDTH 900 0
DWIDTH 12 0
BBX 12 15 0 -3
BITMAP
0000
0600
0600
0600
0600
7FE0
7FE0
0600
0600
0600
0600
0000
7FE0
7FE0
0000
ENDCHAR
STARTCHAR GT_EQ
ENCODING 27
SWIDTH 900 0
DWIDTH 12 0
BBX 12 15 0 -3
BITMAP
0000
0000
7000
1C00
0700
01C0
00E0
01C0
0700
1C00
7000
0000
7FE0
7FE0
0000
ENDCHAR
STARTCHAR MORE_UP
ENCODING 28
SWIDTH 900 0
DWIDTH 12 0
BBX 12 15 0 -3
BITMAP
0000
0000
0000
0000
0600
0F00
1F80
3FC0
7FE0
1F80
1F80
1F80
0000
0000
0000
ENDCHAR
STARTCHAR MORE_DOWN
ENCODING 29
SWIDTH 900 0
DWIDTH 12 0
BBX 12 15 0 -3
BITMAP
0000
0000
0000
0000
1F80
1F80
1F80
7FE0
3FC0
1F80
0F00
0600
0000
0000
0000
ENDCHAR
STARTCHAR MORE_LEFT
ENCODING 30
SWIDTH 900 0
DWIDTH 12 0
BBX 12 15 0 -3
BITMAP
0000
0200
0600
0E00
1FC0
3FC0
7FC0
FFC0
FFC0
7FC0
3FC0
1FC0
0E00
0600
0200
ENDCHAR
STARTCHAR MORE_RIGHT
ENCODING 31
SWIDTH 900 0
DWIDTH 12 0
BBX 12 15 0 -3
BITMAP
0000
0400
0600
0700
3F80
3FC0
3FE0
3FF0
3FF0
3FE0
3FC0
3F80
0700
0600
0400
ENDCHAR
STARTCHAR BLANK
ENCODING 32
SWIDTH 900 0
DWIDTH 12 0
BBX 12 15 0 -3
BITMAP
0000
0000
0000
0000
0000
0000
0000
0000
0000
0000
0000
0000
0000
0000
0000
ENDCHAR
STARTCHAR !
ENCODING 33
SWIDTH 900 0
DWIDTH 12 0
BBX 12 15 0 -3
BITMAP
0000
0600
0600
0600
0600
0600
0600
0600
0600
0600
0600
0000
0000
0600
0600
ENDCHAR
STARTCHAR "
ENCODING 34
SWIDTH 900 0
DWIDTH 12 0
BBX 12 15 0 -3
BITMAP
0000
1980
1980
1980
1980
1980
0000
0000
0000
0000
0000
0000
0000
0000
0000
ENDCHAR
STARTCHAR #
ENCODING 35
SWIDTH 900 0
DWIDTH 12 0
BBX 12 15 0 -3
BITMAP
0000
0000
0000
1980
1980
7FE0
7FE0
1980
1980
7FE0
7FE0
1980
1980
0000
0000
ENDCHAR
STARTCHAR $
ENCODING 36
SWIDTH 900 0
DWIDTH 12 0
BBX 12 15 0 -3
BITMAP
0000
0900
3FC0
7FE0
6960
6900
6900
7FC0
3FE0
0960
0960
6960
7FE0
3FC0
0900
ENDCHAR
STARTCHAR %
ENCODING 37
SWIDTH 900 0
DWIDTH 12 0
BBX 12 15 0 -3
BITMAP
0000
0000
0000
3860
6CE0
39C0
0380
0700
0E00
1C00
39C0
7360
61C0
0000
0000
ENDCHAR
STARTCHAR &
ENCODING 38
SWIDTH 900 0
DWIDTH 12 0
BBX 12 15 0 -3
BITMAP
0000
0E00
1B00
1B00
0E00
0E00
1E00
3300
3300
61E0
61E0
60C0
61C0
3F60
1E60
ENDCHAR
STARTCHAR '
ENCODING 39
SWIDTH 900 0
DWIDTH 12 0
BBX 12 15 0 -3
BITMAP
0000
0700
0700
0700
0300
0600
0000
0000
0000
0000
0000
0000
0000
0000
0000
ENDCHAR
STARTCHAR (
ENCODING 40
SWIDTH 900 0
DWIDTH 12 0
BBX 12 15 0 -3
BITMAP
0000
0180
0300
0600
0C00
0C00
0C00
0C00
0C00
0C00
0C00
0C00
0600
0300
0180
ENDCHAR
STARTCHAR )
ENCODING 41
SWIDTH 900 0
DWIDTH 12 0
BBX 12 15 0 -3
BITMAP
0000
1800
0C00
0600
0300
0300
0300
0300
0300
0300
0300
0300
0600
0C00
1800
ENDCHAR
STARTCHAR *
ENCODING 42
SWIDTH 900 0
DWIDTH 12 0
BBX 12 15 0 -3
BITMAP
0000
0000
0000
0000
30C0
1980
0F00
7FE0
7FE0
0F00
1980
30C0
0000
0000
0000
ENDCHAR
STARTCHAR +
ENCODING 43
SWIDTH 900 0
DWIDTH 12 0
BBX 12 15 0 -3
BITMAP
0000
0000
0000
0000
0600
0600
0600
3FC0
3FC0
0600
0600
0600
0000
0000
0000
ENDCHAR
STARTCHAR ,
ENCODING 44
SWIDTH 900 0
DWIDTH 12 0
BBX 12 15 0 -3
BITMAP
0000
0000
0000
0000
0000
0000
0000
0000
0000
0000
0700
0700
0700
0300
0600
ENDCHAR
STARTCHAR -
ENCODING 45
SWIDTH 900 0
DWIDTH 12 0
BBX 12 15 0 -3
BITMAP
0000
0000
0000
0000
0000
0000
0000
7FE0
7FE0
0000
0000
0000
0000
0000
0000
ENDCHAR
STARTCHAR .
ENCODING 46
SWIDTH 900 0
DWIDTH 12 0
BBX 12 15 0 -3
BITMAP
0000
0000
0000
0000
0000
0000
0000
0000
0000
0000
0000
0E00
0E00
0E00
0E00
ENDCHAR
STARTCHAR /
ENCODING 47
SWIDTH 900 0
DWIDTH 12 0
BBX 12 15 0 -3
BITMAP
0000
0060
0060
0060
00E0
01C0
0380
0700
0E00
1C00
3800
7000
6000
6000
6000
ENDCHAR
STARTCHAR 0
ENCODING 48
SWIDTH 900 0
DWIDTH 12 0
BBX 12 15 0 -3
BITMAP
0000
0F00
1F80
30C0
6060
6060
6060
6060
6060
6060
6060
6060
30C0
1F80
0F00
ENDCHAR
STARTCHAR 1
ENCODING 49
SWIDTH 900 0
DWIDTH 12 0
BBX 12 15 0 -3
BITMAP
0000
0300
0300
0700
1F00
1F00
0300
0300
0300
0300
0300
0300
0300
0300
0300
ENDCHAR
STARTCHAR 2
ENCODING 50
SWIDTH 900 0
DWIDTH 12 0
BBX 12 15 0 -3
BITMAP
0000
1F80
3FC0
70E0
6060
0060
00E0
01C0
0380
0700
0E00
1C00
3800
7FE0
7FE0
ENDCHAR
STARTCHAR 3
ENCODING 51
SWIDTH 900 0
DWIDTH 12 0
BBX 12 15 0 -3
BITMAP
0000
1F80
3FC0
70E0
6060
0060
00E0
0FC0
0FC0
00E0
0060
6060
70E0
3FC0
1F80
ENDCHAR
STARTCHAR 4
ENCODING 52
SWIDTH 900 0
DWIDTH 12 0
BBX 12 15 0 -3
BITMAP
0000
0080
0180
0380
0780
0F80
1D80
3980
7180
7FE0
7FE0
0180
0180
0180
0180
ENDCHAR
STARTCHAR 5
ENCODING 53
SWIDTH 900 0
DWIDTH 12 0
BBX 12 15 0 -3
BITMAP
0000
7FE0
7FE0
6000
6000
6000
7F80
7FC0
00E0
0060
0060
6060
70E0
3FC0
1F80
ENDCHAR
STARTCHAR 6
ENCODING 54
SWIDTH 900 0
DWIDTH 12 0
BBX 12 15 0 -3
BITMAP
0000
1F80
3FC0
70E0
6060
6000
6F80
7FC0
70E0
6060
6060
6060
70E0
3FC0
1F80
ENDCHAR
STARTCHAR 7
ENCODING 55
SWIDTH 900 0
DWIDTH 12 0
BBX 12 15 0 -3
BITMAP
0000
7FE0
7FE0
0060
00E0
01C0
0380
0700
0E00
0C00
0C00
0C00
0C00
0C00
0C00
ENDCHAR
STARTCHAR 8
ENCODING 56
SWIDTH 900 0
DWIDTH 12 0
BBX 12 15 0 -3
BITMAP
0000
1F80
3FC0
6060
6060
6060
6060
3FC0
3FC0
6060
6060
6060
6060
3FC0
1F80
ENDCHAR
STARTCHAR 9
ENCODING 57
SWIDTH 900 0
DWIDTH 12 0
BBX 12 15 0 -3
BITMAP
0000
1F80
3FC0
70E0
6060
6060
6060
70E0
3FE0
1F60
0060
6060
70E0
3FC0
1F80
ENDCHAR
STARTCHAR :
ENCODING 58
SWIDTH 900 0
DWIDTH 12 0
BBX 12 15 0 -3
BITMAP
0000
0000
0000
0000
0E00
0E00
0E00
0000
0000
0E00
0E00
0E00
0000
0000
0000
ENDCHAR
STARTCHAR ;
ENCODING 59
SWIDTH 900 0
DWIDTH 12 0
BBX 12 15 0 -3
BITMAP
0000
0000
0000
0000
0000
0E00
0E00
0E00
0000
0000
0E00
0E00
0E00
0600
0C00
ENDCHAR
STARTCHAR <
ENCODING 60
SWIDTH 900 0
DWIDTH 12 0
BBX 12 15 0 -3
BITMAP
0000
01C0
0380
0700
0E00
1C00
3800
7000
7000
3800
1C00
0E00
0700
0380
01C0
ENDCHAR
STARTCHAR =
ENCODING 61
SWIDTH 900 0
DWIDTH 12 0
BBX 12 15 0 -3
BITMAP
0000
0000
0000
0000
0000
7FE0
7FE0
0000
0000
7FE0
7FE0
0000
0000
0000
0000
ENDCHAR
STARTCHAR >
ENCODING 62
SWIDTH 900 0
DWIDTH 12 0
BBX 12 15 0 -3
BITMAP
0000
7000
3800
1C00
0E00
0700
0380
01C0
01C0
0380
0700
0E00
1C00
3800
7000
ENDCHAR
STARTCHAR ?
ENCODING 63
SWIDTH 900 0
DWIDTH 12 0
BBX 12 15 0 -3
BITMAP
0000
1F80
3FC0
70E0
6060
6060
01C0
0780
0600
0600
0600
0000
0000
0600
0600
ENDCHAR
STARTCHAR @
ENCODING 64
SWIDTH 900 0
DWIDTH 12 0
BBX 12 15 0 -3
BITMAP
0000
0F00
1F80
30C0
6060
6660
6960
6960
6960
6960
67C0
6000
3060
1FC0
0F80
ENDCHAR
STARTCHAR A
ENCODING 65
SWIDTH 900 0
DWIDTH 12 0
BBX 12 15 0 -3
BITMAP
0000
1F80
3FC0
6060
6060
6060
6060
7FE0
7FE0
6060
6060
6060
6060
6060
6060
ENDCHAR
STARTCHAR B
ENCODING 66
SWIDTH 900 0
DWIDTH 12 0
BBX 12 15 0 -3
BITMAP
0000
7F80
7FC0
6060
6060
6060
6060
7FC0
7FC0
6060
6060
6060
6060
7FC0
7F80
ENDCHAR
STARTCHAR C
ENCODING 67
SWIDTH 900 0
DWIDTH 12 0
BBX 12 15 0 -3
BITMAP
0000
1F80
3FC0
70E0
6060
6000
6000
6000
6000
6000
6000
6060
70E0
3FC0
1F80
ENDCHAR
STARTCHAR D
ENCODING 68
SWIDTH 900 0
DWIDTH 12 0
BBX 12 15 0 -3
BITMAP
0000
7F80
7FC0
60E0
6060
6060
6060
6060
6060
6060
6060
6060
60E0
7FC0
7F80
ENDCHAR
STARTCHAR E
ENCODING 69
SWIDTH 900 0
DWIDTH 12 0
BBX 12 15 0 -3
BITMAP
0000
7FE0
7FE0
6000
6000
6000
6000
7F00
7F00
6000
6000
6000
6000
7FE0
7FE0
ENDCHAR
STARTCHAR F
ENCODING 70
SWIDTH 900 0
DWIDTH 12 0
BBX 12 15 0 -3
BITMAP
0000
7FE0
7FE0
6000
6000
6000
6000
7F00
7F00
6000
6000
6000
6000
6000
6000
ENDCHAR
STARTCHAR G
ENCODING 71
SWIDTH 900 0
DWIDTH 12 0
BBX 12 15 0 -3
BITMAP
0000
1F80
3FC0
70E0
6060
6000
6000
6000
63E0
63E0
6060
6060
70E0
3FC0
1F80
ENDCHAR
STARTCHAR H
ENCODING 72
SWIDTH 900 0
DWIDTH 12 0
BBX 12 15 0 -3
BITMAP
0000
6060
6060
6060
6060
6060
6060
7FE0
7FE0
6060
6060
6060
6060
6060
6060
ENDCHAR
STARTCHAR I
ENCODING 73
SWIDTH 900 0
DWIDTH 12 0
BBX 12 15 0 -3
BITMAP
0000
7FE0
7FE0
0600
0600
0600
0600
0600
0600
0600
0600
0600
0600
7FE0
7FE0
ENDCHAR
STARTCHAR J
ENCODING 74
SWIDTH 900 0
DWIDTH 12 0
BBX 12 15 0 -3
BITMAP
0000
0060
0060
0060
0060
0060
0060
0060
0060
0060
0060
6060
70E0
3FC0
1F80
ENDCHAR
STARTCHAR K
ENCODING 75
SWIDTH 900 0
DWIDTH 12 0
BBX 12 15 0 -3
BITMAP
0000
6060
60E0
61C0
6380
6700
6E00
7C00
7C00
6E00
6700
6380
61C0
60E0
6060
ENDCHAR
STARTCHAR L
ENCODING 76
SWIDTH 900 0
DWIDTH 12 0
BBX 12 15 0 -3
BITMAP
0000
6000
6000
6000
6000
6000
6000
6000
6000
6000
6000
6000
6000
7FE0
7FE0
ENDCHAR
STARTCHAR M
ENCODING 77
SWIDTH 900 0
DWIDTH 12 0
BBX 12 15 0 -3
BITMAP
0000
6060
70E0
79E0
7FE0
6F60
6660
6060
6060
6060
6060
6060
6060
6060
6060
ENDCHAR
STARTCHAR N
ENCODING 78
SWIDTH 900 0
DWIDTH 12 0
BBX 12 15 0 -3
BITMAP
0000
6060
6060
6060
7060
7860
7C60
6E60
6760
63E0
61E0
60E0
6060
6060
6060
ENDCHAR
STARTCHAR O
ENCODING 79
SWIDTH 900 0
DWIDTH 12 0
BBX 12 15 0 -3
BITMAP
0000
1F80
3FC0
70E0
6060
6060
6060
6060
6060
6060
6060
6060
70E0
3FC0
1F80
ENDCHAR
STARTCHAR P
ENCODING 80
SWIDTH 900 0
DWIDTH 12 0
BBX 12 15 0 -3
BITMAP
0000
7F80
7FC0
60E0
6060
6060
6060
60E0
7FC0
7F80
6000
6000
6000
6000
6000
ENDCHAR
STARTCHAR Q
ENCODING 81
SWIDTH 900 0
DWIDTH 12 0
BBX 12 15 0 -3
BITMAP
0000
1F80
3FC0
70E0
6060
6060
6060
6060
6060
6660
6760
63E0
71C0
3FE0
1F60
ENDCHAR
STARTCHAR R
ENCODING 82
SWIDTH 900 0
DWIDTH 12 0
BBX 12 15 0 -3
BITMAP
0000
7F80
7FC0
60E0
6060
6060
6060
60E0
7FC0
7F80
6700
6380
61C0
60E0
6060
ENDCHAR
STARTCHAR S
ENCODING 83
SWIDTH 900 0
DWIDTH 12 0
BBX 12 15 0 -3
BITMAP
0000
1F80
3FC0
70E0
6060
6060
7000
3F80
1FC0
00E0
0060
6060
70E0
3FC0
1F80
ENDCHAR
STARTCHAR T
ENCODING 84
SWIDTH 900 0
DWIDTH 12 0
BBX 12 15 0 -3
BITMAP
0000
7FE0
7FE0
0600
0600
0600
0600
0600
0600
0600
0600
0600
0600
0600
0600
ENDCHAR
STARTCHAR U
ENCODING 85
SWIDTH 900 0
DWIDTH 12 0
BBX 12 15 0 -3
BITMAP
0000
6060
6060
6060
6060
6060
6060
6060
6060
6060
6060
6060
70E0
3FC0
1F80
ENDCHAR
STARTCHAR V
ENCODING 86
SWIDTH 900 0
DWIDTH 12 0
BBX 12 15 0 -3
BITMAP
0000
6060
6060
6060
6060
6060
6060
6060
6060
6060
70E0
39C0
1F80
0F00
0600
ENDCHAR
STARTCHAR W
ENCODING 87
SWIDTH 900 0
DWIDTH 12 0
BBX 12 15 0 -3
BITMAP
0000
6060
6060
6060
6060
6060
6060
6060
6060
6660
6F60
7FE0
79E0
70E0
6060
ENDCHAR
STARTCHAR X
ENCODING 88
SWIDTH 900 0
DWIDTH 12 0
BBX 12 15 0 -3
BITMAP
0000
6060
6060
6060
70E0
39C0
1F80
0F00
0F00
1F80
39C0
70E0
6060
6060
6060
ENDCHAR
STARTCHAR Y
ENCODING 89
SWIDTH 900 0
DWIDTH 12 0
BBX 12 15 0 -3
BITMAP
0000
6060
6060
70E0
39C0
1F80
0F00
0600
0600
0600
0600
0600
0600
0600
0600
ENDCHAR
STARTCHAR Z
ENCODING 90
SWIDTH 900 0
DWIDTH 12 0
BBX 12 15 0 -3
BITMAP
0000
7FE0
7FE0
0060
00E0
01C0
0380
0700
0E00
1C00
3800
7000
6000
7FE0
7FE0
ENDCHAR
STARTCHAR [
ENCODING 91
SWIDTH 900 0
DWIDTH 12 0
BBX 12 15 0 -3
BITMAP
0000
1F80
1F80
1800
1800
1800
1800
1800
1800
1800
1800
1800
1800
1F80
1F80
ENDCHAR
STARTCHAR \
ENCODING 92
SWIDTH 900 0
DWIDTH 12 0
BBX 12 15 0 -3
BITMAP
0000
6000
6000
6000
7000
3800
1C00
0E00
0700
0380
01C0
00E0
0060
0060
0060
ENDCHAR
STARTCHAR ]
ENCODING 93
SWIDTH 900 0
DWIDTH 12 0
BBX 12 15 0 -3
BITMAP
0000
1F80
1F80
0180
0180
0180
0180
0180
0180
0180
0180
0180
0180
1F80
1F80
ENDCHAR
STARTCHAR ^
ENCODING 94
SWIDTH 900 0
DWIDTH 12 0
BBX 12 15 0 -3
BITMAP
0000
0600
0F00
1980
30C0
6060
0000
0000
0000
0000
0000
0000
0000
0000
0000
ENDCHAR
STARTCHAR _
ENCODING 95
SWIDTH 900 0
DWIDTH 12 0
BBX 12 15 0 -3
BITMAP
0000
0000
0000
0000
0000
0000
0000
0000
0000
0000
0000
0000
0000
7FE0
7FE0
ENDCHAR
STARTCHAR `
ENCODING 96
SWIDTH 900 0
DWIDTH 12 0
BBX 12 15 0 -3
BITMAP
0000
1C00
1C00
1C00
1800
0C00
0000
0000
0000
0000
0000
0000
0000
0000
0000
ENDCHAR
STARTCHAR a
ENCODING 97
SWIDTH 900 0
DWIDTH 12 0
BBX 12 15 0 -3
BITMAP
0000
0000
0000
0000
0000
3FC0
7FE0
0060
0060
3FE0
7FE0
6060
6060
7FE0
3F60
ENDCHAR
STARTCHAR b
ENCODING 98
SWIDTH 900 0
DWIDTH 12 0
BBX 12 15 0 -3
BITMAP
0000
6000
6000
6000
6000
7FC0
7FE0
6060
6060
6060
6060
6060
6060
7FE0
7FC0
ENDCHAR
STARTCHAR c
ENCODING 99
SWIDTH 900 0
DWIDTH 12 0
BBX 12 15 0 -3
BITMAP
0000
0000
0000
0000
0000
3FC0
7FC0
6000
6000
6000
6000
6000
6000
7FC0
3FC0
ENDCHAR
STARTCHAR d
ENCODING 100
SWIDTH 900 0
DWIDTH 12 0
BBX 12 15 0 -3
BITMAP
0000
0060
0060
0060
0060
3FE0
7FE0
6060
6060
6060
6060
6060
6060
7FE0
3FE0
ENDCHAR
STARTCHAR e
ENCODING 101
SWIDTH 900 0
DWIDTH 12 0
BBX 12 15 0 -3
BITMAP
0000
0000
0000
0000
0000
3FC0
7FE0
6060
6060
7FE0
7FC0
6000
6060
7FE0
3FC0
ENDCHAR
STARTCHAR f
ENCODING 102
SWIDTH 900 0
DWIDTH 12 0
BBX 12 15 0 -3
BITMAP
0000
0F80
1FC0
18C0
1800
1800
1800
7E00
7E00
1800
1800
1800
1800
1800
1800
ENDCHAR
STARTCHAR g
ENCODING 103
SWIDTH 900 0
DWIDTH 12 0
BBX 12 15 0 -3
BITMAP
0000
0000
0000
0000
0000
3FE0
7FE0
6060
6060
7FE0
3FE0
0060
6060
7FE0
3FC0
ENDCHAR
STARTCHAR h
ENCODING 104
SWIDTH 900 0
DWIDTH 12 0
BBX 12 15 0 -3
BITMAP
0000
6000
6000
6000
6000
7F80
7FC0
6060
6060
6060
6060
6060
6060
6060
6060
ENDCHAR
STARTCHAR i
ENCODING 105
SWIDTH 900 0
DWIDTH 12 0
BBX 12 15 0 -3
BITMAP
0000
0000
0600
0600
0000
0E00
1E00
0600
0600
0600
0600
0600
0600
1F80
1F80
ENDCHAR
STARTCHAR j
ENCODING 106
SWIDTH 900 0
DWIDTH 12 0
BBX 12 15 0 -3
BITMAP
0000
0000
00C0
00C0
0000
01C0
03C0
00C0
00C0
00C0
00C0
00C0
30C0
3FC0
1F80
ENDCHAR
STARTCHAR k
ENCODING 107
SWIDTH 900 0
DWIDTH 12 0
BBX 12 15 0 -3
BITMAP
0000
6000
6000
6000
6000
6180
6300
6600
6C00
7800
7800
6C00
6600
6300
6180
ENDCHAR
STARTCHAR l
ENCODING 108
SWIDTH 900 0
DWIDTH 12 0
BBX 12 15 0 -3
BITMAP
0000
0E00
0E00
0600
0600
0600
0600
0600
0600
0600
0600
0600
0600
0F00
0F00
ENDCHAR
STARTCHAR m
ENCODING 109
SWIDTH 900 0
DWIDTH 12 0
BBX 12 15 0 -3
BITMAP
0000
0000
0000
0000
0000
6FC0
7FE0
6660
6660
6660
6660
6660
6660
6660
6660
ENDCHAR
STARTCHAR n
ENCODING 110
SWIDTH 900 0
DWIDTH 12 0
BBX 12 15 0 -3
BITMAP
0000
0000
0000
0000
0000
6F80
7FC0
60C0
60C0
60C0
60C0
60C0
60C0
60C0
60C0
ENDCHAR
STARTCHAR o
ENCODING 111
SWIDTH 900 0
DWIDTH 12 0
BBX 12 15 0 -3
BITMAP
0000
0000
0000
0000
0000
3FC0
7FE0
6060
6060
6060
6060
6060
6060
7FE0
3FC0
ENDCHAR
STARTCHAR p
ENCODING 112
SWIDTH 900 0
DWIDTH 12 0
BBX 12 15 0 -3
BITMAP
0000
0000
0000
0000
0000
7FC0
7FE0
6060
6060
7FE0
7FC0
6000
6000
6000
6000
ENDCHAR
STARTCHAR q
ENCODING 113
SWIDTH 900 0
DWIDTH 12 0
BBX 12 15 0 -3
BITMAP
0000
0000
0000
0000
0000
3FE0
7FE0
6060
6060
7FE0
3FE0
0060
0060
0060
0060
ENDCHAR
STARTCHAR r
ENCODING 114
SWIDTH 900 0
DWIDTH 12 0
BBX 12 15 0 -3
BITMAP
0000
0000
0000
0000
0000
6FC0
7FE0
7060
6000
6000
6000
6000
6000
6000
6000
ENDCHAR
STARTCHAR s
ENCODING 115
SWIDTH 900 0
DWIDTH 12 0
BBX 12 15 0 -3
BITMAP
0000
0000
0000
0000
0000
3FC0
7FE0
6060
6000
7FC0
3FE0
0060
6060
7FE0
3FC0
ENDCHAR
STARTCHAR t
ENCODING 116
SWIDTH 900 0
DWIDTH 12 0
BBX 12 15 0 -3
BITMAP
0000
1800
1800
1800
7E00
7E00
1800
1800
1800
1800
1800
1800
18C0
1FC0
0F80
ENDCHAR
STARTCHAR u
ENCODING 117
SWIDTH 900 0
DWIDTH 12 0
BBX 12 15 0 -3
BITMAP
0000
0000
0000
0000
0000
6060
6060
6060
6060
6060
6060
60E0
71E0
3F60
1E60
ENDCHAR
STARTCHAR v
ENCODING 118
SWIDTH 900 0
DWIDTH 12 0
BBX 12 15 0 -3
BITMAP
0000
0000
0000
0000
0000
6060
6060
6060
6060
6060
6060
30C0
1980
0F00
0600
ENDCHAR
STARTCHAR w
ENCODING 119
SWIDTH 900 0
DWIDTH 12 0
BBX 12 15 0 -3
BITMAP
0000
0000
0000
0000
0000
6060
6060
6060
6060
6060
6660
6F60
79E0
70E0
6060
ENDCHAR
STARTCHAR x
ENCODING 120
SWIDTH 900 0
DWIDTH 12 0
BBX 12 15 0 -3
BITMAP
0000
0000
0000
0000
0000
6060
30C0
1980
0F00
0600
0F00
1980
30C0
6060
6060
ENDCHAR
STARTCHAR y
ENCODING 121
SWIDTH 900 0
DWIDTH 12 0
BBX 12 15 0 -3
BITMAP
0000
0000
0000
0000
0000
6060
6060
6060
70E0
3FE0
0F60
0060
6060
7FE0
3FC0
ENDCHAR
STARTCHAR z
ENCODING 122
SWIDTH 900 0
DWIDTH 12 0
BBX 12 15 0 -3
BITMAP
0000
0000
0000
0000
0000
7FE0
7FE0
00C0
0180
0300
0600
0C00
1800
3FE0
7FE0
ENDCHAR
STARTCHAR {
ENCODING 123
SWIDTH 900 0
DWIDTH 12 0
BBX 12 15 0 -3
BITMAP
0000
0780
0F80
0C00
0E00
0700
0700
1E00
1E00
0700
0700
0E00
0C00
0F80
0780
ENDCHAR
STARTCHAR |
ENCODING 124
SWIDTH 900 0
DWIDTH 12 0
BBX 12 15 0 -3
BITMAP
0000
0600
0600
0600
0600
0600
0600
0600
0600
0600
0600
0600
0600
0600
0600
ENDCHAR
STARTCHAR }
ENCODING 125
SWIDTH 900 0
DWIDTH 12 0
BBX 12 15 0 -3
BITMAP
0000
1E00
1F00
0300
0700
0E00
0E00
0780
0780
0E00
0E00
0700
0300
1F00
1E00
ENDCHAR
STARTCHAR ~
ENCODING 126
SWIDTH 900 0
DWIDTH 12 0
BBX 12 15 0 -3
BITMAP
0000
1C60
3EE0
77C0
6380
0000
0000
0000
0000
0000
0000
0000
0000
0000
0000
ENDCHAR
STARTCHAR DEL
ENCODING 127
SWIDTH 900 0
DWIDTH 12 0
BBX 12 15 0 -3
BITMAP
0000
5540
2AA0
5540
2AA0
5540
2AA0
5540
2AA0
5540
2AA0
5540
2AA0
5540
2AA0
ENDCHAR
ENDFONT
